<svg xmlns="http://www.w3.org/2000/svg" xmlns:xlink="http://www.w3.org/1999/xlink" width="24" height="24" viewBox="0 0 24 24"><defs><style>.a{fill:none;}.b{fill:#b3b3b3;opacity:0;}.c{clip-path:url(#a);}.d{fill:#333;}.e{clip-path:url(#b);}</style><clipPath id="a"><rect class="a" width="20.406" height="22"/></clipPath><clipPath id="b"><rect class="a" width="20.411" height="22"/></clipPath></defs><g transform="translate(-56 -403)"><rect class="b" width="24" height="24" transform="translate(56 403)"/><g transform="translate(57.794 404)"><g transform="translate(0.005)"><g class="c"><path class="d" d="M69.257,100.943a.784.784,0,0,1-.785-.784V97.8a.784.784,0,1,1,1.569,0v2.354a.784.784,0,0,1-.784.784" transform="translate(-59.061 -83.68)"/><path class="d" d="M18.044,76.122H2.354A2.356,2.356,0,0,1,0,73.768v-8.63a2.356,2.356,0,0,1,2.354-2.354H18.044A2.357,2.357,0,0,1,20.4,65.138v8.63a2.357,2.357,0,0,1-2.354,2.354M2.354,64.353a.786.786,0,0,0-.785.784v8.63a.785.785,0,0,0,.785.785H18.044a.785.785,0,0,0,.784-.785v-8.63a.785.785,0,0,0-.784-.784Z" transform="translate(-0.004 -54.151)"/></g></g><g class="e"><path class="d" d="M40.3,10.217a.784.784,0,0,1-.785-.785V6.246a4.9,4.9,0,0,0-4.748-4.659A4.613,4.613,0,0,0,30.1,6.235v3.2a.785.785,0,1,1-1.569,0v-3.2A6.167,6.167,0,0,1,34.766.018a6.445,6.445,0,0,1,6.317,6.228V9.433a.784.784,0,0,1-.785.785" transform="translate(-24.607 -0.016)"/></g></g></g></svg>