<svg xmlns="http://www.w3.org/2000/svg" xmlns:xlink="http://www.w3.org/1999/xlink" width="24" height="24" viewBox="0 0 24 24"><defs><style>.a{fill:none;}.b{fill:#b3b3b3;opacity:0;}.c{clip-path:url(#a);}.d{fill:#333;}</style><clipPath id="a"><rect class="a" width="24" height="24"/></clipPath></defs><g transform="translate(-56 -347)"><rect class="b" width="24" height="24" transform="translate(56 347)"/><g transform="translate(56.45 347.45)"><g class="c" transform="translate(-0.45 -0.45)"><path class="d" d="M32.359,44.2v.03c-.165,0-.287.013-.358.013h-.084a3.259,3.259,0,0,1-.1-6.516l.1,0a3.172,3.172,0,0,1,1.883.618c.782.276,1.573-.11,2.346-1.146s.931-1.843.48-2.423a3.239,3.239,0,0,1-.468-.415.92.92,0,0,1-.076-.084,3.219,3.219,0,0,1,2.317-5.365l.1,0a3.243,3.243,0,0,1,3.144,2.521c.263.811.934,4.025-2.295,8.342-2.987,4-5.886,4.432-7,4.432m-.1-1.631c.483.011,3.018-.057,5.792-3.777,2.834-3.789,2.189-6.447,2.03-6.942a1.6,1.6,0,0,0-3.182.336,1.586,1.586,0,0,0,.421,1.017l.017.02a1.586,1.586,0,0,0,.294.256.8.8,0,0,1,.164.142c.5.563,1.466,2.133-.338,4.545A3.958,3.958,0,0,1,34.3,40.058a3.13,3.13,0,0,1-1.209-.248.822.822,0,0,1-.19-.112,1.581,1.581,0,0,0-.978-.35,1.623,1.623,0,0,0-1.172.5,1.607,1.607,0,0,0,1.168,2.707s0,0,0,0c.03,0,.064-.009.083-.011a1.047,1.047,0,0,1,.254.025" transform="translate(-23.998 -24.189)"/><path class="d" d="M11.4,22.8a11.325,11.325,0,0,1-4.417-.888.815.815,0,0,1,.633-1.5,9.773,9.773,0,1,0-4.5-3.822.814.814,0,0,1-1.379.866A11.4,11.4,0,1,1,11.4,22.8" transform="translate(0.6 0.6)"/></g></g></g></svg>