<svg xmlns="http://www.w3.org/2000/svg" xmlns:xlink="http://www.w3.org/1999/xlink" width="26" height="26"
	viewBox="0 0 26 26">
	<defs>
		<style>
			.a {
				fill: #1abfac;
			}

			.b {
				fill: #b3b3b3;
				opacity: 0;
			}

			.c {
				clip-path: url(#a);
			}
		</style>
		<clipPath id="a">
			<rect class="a" width="24" height="24" transform="translate(0 0)" />
		</clipPath>
	</defs>
	<g transform="translate(-130 -729)">
		<rect class="b" width="26" height="26" transform="translate(130 729)" />
		<g transform="translate(-97.635 729.999)">
			<g class="c" transform="translate(228.651 0.001)">
				<path class="a"
					d="M328.236,98.206l-5.71-5.71a.857.857,0,0,0-1.207,0l-2.116,2.09a.856.856,0,0,0,0,1.215l5.723,5.723a.855.855,0,0,0,1.21,0l2.1-2.1a.855.855,0,0,0,0-1.21"
					transform="translate(-305.404 -78.409)" />
				<path class="a"
					d="M242.274.683l-.038-.016a8.134,8.134,0,0,0-8.88,1.773L228.9,6.876a.856.856,0,0,0,0,1.212l2.629,2.629a.855.855,0,0,0,1.21,0l1.5-1.5,1.825,1.824a.855.855,0,0,0,.605.251h0a.853.853,0,0,0,.606-.256l2.084-2.123a.856.856,0,0,0-.005-1.205L237.55,5.9a.635.635,0,0,1,.028-.492l.124-.236a14.5,14.5,0,0,1,1.088-1.423,4.907,4.907,0,0,1,3.12-1.425.827.827,0,0,0,.808-.519.862.862,0,0,0-.444-1.122"
					transform="translate(-228.651 -0.039)" />
				<path class="a"
					d="M257.039,8.684a.858.858,0,0,0-.627-.479.849.849,0,0,0-.752.238l-2.391,2.39-.883-.884,2.375-2.375a.856.856,0,0,0-.253-1.385,5.217,5.217,0,0,0-2.13-.458,5.086,5.086,0,0,0-3.623,1.5,5.172,5.172,0,0,0-1.258,5.188L241.112,18.8a5.129,5.129,0,0,0-6.229,7.012.857.857,0,0,0,1.386.253l2.341-2.341.884.884-2.355,2.355a.856.856,0,0,0,.241,1.38,5.229,5.229,0,0,0,2.21.493,5.083,5.083,0,0,0,3.619-1.5,5.152,5.152,0,0,0,1.232-5.257l6.342-6.342a5.224,5.224,0,0,0,1.637.266,5.083,5.083,0,0,0,3.619-1.5,5.154,5.154,0,0,0,1-5.827"
					transform="translate(-233.563 -4.871)" />
			</g>
		</g>
	</g>
</svg>