<svg xmlns="http://www.w3.org/2000/svg" xmlns:xlink="http://www.w3.org/1999/xlink" width="26" height="26"
	viewBox="0 0 26 26">
	<defs>
		<style>
			.a {
				fill: none;
			}

			.b {
				fill: none;
				opacity: 0;
			}

			.c {
				clip-path: url(#a);
			}

			.d {
				fill: #ffffff;
			}
		</style>
		<clipPath id="a">
			<rect class="a" width="24" height="22.395" />
		</clipPath>
	</defs>
	<g transform="translate(-40 -729)">
		<rect class="b" width="26" height="26" transform="translate(40 729)" />
		<g transform="translate(41 721.491)">
			<g class="c" transform="translate(0 9.311)">
				<path class="d"
					d="M.9,19.828a.778.778,0,0,1-.685-.342.827.827,0,0,1,.086-1.2l10.1-8.3a2.7,2.7,0,0,1,3.167,0l10.1,8.217a.849.849,0,1,1-1.113,1.284L12.543,11.44a1.092,1.092,0,0,0-1.027,0l-10.1,8.217a.629.629,0,0,1-.513.171M20.16,31.81H14.6a.809.809,0,0,1-.856-.856V26.932c0-.6-1.027-1.2-1.8-1.2s-1.712.514-1.712,1.2v4.023a.809.809,0,0,1-.856.856H3.984a2.14,2.14,0,0,1-2.225-2.14V21.539a.809.809,0,0,1,.856-.856.809.809,0,0,1,.856.856v8.131c0,.257.171.428.514.428H8.605V26.932c0-1.712,1.8-2.91,3.424-2.91s3.509,1.2,3.509,2.91V30.1h4.707c.257,0,.428,0,.428-.513V21.539a.856.856,0,0,1,1.712,0v8.131a2.138,2.138,0,0,1-2.225,2.14"
					transform="translate(0 -9.447)" />
			</g>
		</g>
	</g>
</svg>