<svg xmlns="http://www.w3.org/2000/svg" xmlns:xlink="http://www.w3.org/1999/xlink" width="26" height="26"
	viewBox="0 0 26 26">
	<defs>
		<style>
			.a {
				fill: none;
			}

			.b {
				fill: #b3b3b3;
				opacity: 0;
			}

			.c {
				clip-path: url(#a);
			}

			.d {
				fill: #ffffff;
			}
		</style>
		<clipPath id="a">
			<rect class="a" width="22.204" height="24" transform="translate(0 0)" />
		</clipPath>
	</defs>
	<g transform="translate(-219 -729)">
		<rect class="b" width="26" height="26" transform="translate(219 729)" />
		<g transform="translate(-233.272 720.538)">
			<g class="c" transform="translate(454.17 9.462)">
				<path class="d"
					d="M501.38,56.649l-6.225,6.29L492.4,60.109a.854.854,0,1,0-1.224,1.19l3.361,3.455s.005,0,.007,0l0,.007a.867.867,0,0,0,.187.124.828.828,0,0,0,.091.059.844.844,0,0,0,.323.064.861.861,0,0,0,.319-.062,1.012,1.012,0,0,0,.091-.058.81.81,0,0,0,.185-.121s0-.005.005-.007,0,0,.007-.005l6.837-6.909a.853.853,0,0,0-1.213-1.2"
					transform="translate(-485.013 -48.836)" />
				<path class="d"
					d="M465.315,9.449a.845.845,0,0,0-.286,0c-2.553.428-10.884,2.074-10.884,5.251,0,10.291,8.324,18.709,11.025,18.709,2.655,0,11.169-8.629,11.169-18.709,0-3.024-7.71-4.68-11.025-5.251M465.17,31.7c-1.568-.15-9.318-7.5-9.318-17,0-1.026,4.423-2.7,9.316-3.543,4.971.874,9.463,2.552,9.463,3.543,0,9.481-7.87,16.845-9.461,17"
					transform="translate(-454.149 -9.441)" />
			</g>
		</g>
	</g>
</svg>