<svg xmlns="http://www.w3.org/2000/svg" xmlns:xlink="http://www.w3.org/1999/xlink" width="26" height="26"
	viewBox="0 0 26 26">
	<defs>
		<style>
			.a {
				fill: #005500;
			}

			.b {
				fill: #b3b3b3;
				opacity: 0;
			}

			.c {
				clip-path: url(#a);
			}

			.d {
				fill: #005500;
			}
		</style>
		<clipPath id="a">
			<rect class="a" width="24" height="22.267" />
		</clipPath>
	</defs>
	<g transform="translate(308 -1768)">
		<rect class="b" width="26" height="26" transform="translate(-308 1768)" />
		<g transform="translate(-36.666 -106.157)">
			<g transform="translate(-270.334 1876.024)">
				<g class="c" transform="translate(0 0)">
					<path class="a"
						d="M252.379,7.273a.32.32,0,0,0-.007-.036.812.812,0,0,0-.044-.149L250.3,1.9A2.549,2.549,0,0,0,247.765.168h-14.22a2.465,2.465,0,0,0-2.459,1.685l-2.178,5.288a1.155,1.155,0,0,0-.031.124,5.043,5.043,0,0,0-.238,1.526,4.9,4.9,0,0,0,2.519,4.31,4.583,4.583,0,0,0,2.237.529h0a4.681,4.681,0,0,0,3.628-1.74,4.6,4.6,0,0,0,7.2,0,4.764,4.764,0,0,0,5.909,1.18,4.962,4.962,0,0,0,2.244-5.793m-5.034.866H233.515a.889.889,0,0,1,0-1.776h13.829a.889.889,0,0,1,0,1.776"
						transform="translate(-228.643 -0.146)" />
				</g>
			</g>
			<path class="d"
				d="M259.279,91.4a.876.876,0,0,0-.864-.888.785.785,0,0,0-.25.052,5.23,5.23,0,0,1-2.078.366,5.137,5.137,0,0,1-3.4-1.229,5.5,5.5,0,0,1-3.584,1.369,5.4,5.4,0,0,1-3.615-1.225,5.419,5.419,0,0,1-3.627,1.3h-.005a5.015,5.015,0,0,1-2.048-.448.555.555,0,0,0-.064-.024l-.1-.038a1.5,1.5,0,0,0-.193-.022h0a.876.876,0,0,0-.863.89l.006,4.76a2.246,2.246,0,0,0,2.214,2.271l16.264-.011a2.252,2.252,0,0,0,2.212-2.277Z"
				transform="translate(-507.438 1799.728)" />
		</g>
	</g>
</svg>